# xmcd CD database file
#
# Track frame offsets:
#	151
#	17812
#	38448
#	58297
#	73698
#	92182
#	109504
#	133980
#	153800
#	170328
#	190131
#	209815
#	229155
#
# Disc length: 3262 seconds
#
# Revision: 2
# Processed by: cddbd v1.4b41PL1 Copyright (c) Steve Scherf et al.
# Submitted via: Feurio! 1.50.2ß - http://www.feurio.com
#
DISCID=b50cbc0d
DTITLE=Jeff Healey Band - Get me some
DYEAR=1900
DGENRE=
TTITLE0=Which One
TTITLE1=Hey Hey
TTITLE2=Love Is The Answer
TTITLE3=My Life Story
TTITLE4=I Tried
TTITLE5=The Damage Is Done
TTITLE6=Feel Better
TTITLE7=Holding One
TTITLE8=I Should Have Told You
TTITLE9=Macon Georgia Blue
TTITLE10=House Is Burning Down
TTITLE11=Runaway Heart
TTITLE12=Rachel's Song
EXTD=
EXTT0=
EXTT1=
EXTT2=
EXTT3=
EXTT4=
EXTT5=
EXTT6=
EXTT7=
EXTT8=
EXTT9=
EXTT10=
EXTT11=
EXTT12=
PLAYORDER=
